<svg id="Art" xmlns="http://www.w3.org/2000/svg" xmlns:xlink="http://www.w3.org/1999/xlink" viewBox="0 0 807.74 126.57"><defs><style>.cls-1{fill:none;}.cls-2{clip-path:url(#clip-path);}.cls-3{clip-path:url(#clip-path-2);}.cls-4{fill:#ea4335;}.cls-5{fill:#4285f4;}.cls-6{fill:#34a853;}.cls-7{fill:#fbbc05;}.cls-8{fill:#5f6368;}</style><clipPath id="clip-path" transform="translate(-85.44 -66.11)"><rect class="cls-1" x="0.01" width="975.36" height="256"/></clipPath><clipPath id="clip-path-2" transform="translate(-85.44 -66.11)"><rect class="cls-1" x="82.19" y="49.87" width="156.13" height="156.13"/></clipPath></defs><g class="cls-2"><g class="cls-3"><path class="cls-4" d="M180.67,99.37l4.79.09,13-13,.64-5.52a58.49,58.49,0,0,0-95.37,28.43c1.43-1,4.46-.25,4.46-.25l26-4.28s1.35-2.21,2-2.08a32.47,32.47,0,0,1,44.43-3.37Z" transform="translate(-85.44 -66.11)"/><path class="cls-5" d="M216.76,109.38A58.56,58.56,0,0,0,199.1,80.91L180.66,99.36a32.49,32.49,0,0,1,12.12,25.3v3.25a16.27,16.27,0,0,1,0,32.53H160.25L157,163.71v19.52l3.25,3.23h32.53a42.27,42.27,0,0,0,24-77.08Z" transform="translate(-85.44 -66.11)"/><path class="cls-6" d="M127.73,186.46h32.5v-26h-32.5A16.16,16.16,0,0,1,121,159l-4.69,1.43-13,13-1.14,4.4A42.12,42.12,0,0,0,127.73,186.46Z" transform="translate(-85.44 -66.11)"/><path class="cls-7" d="M127.73,101.89a42.27,42.27,0,0,0-25.54,76L121.05,159a16.25,16.25,0,1,1,21.49-21.49l18.86-18.86A42.22,42.22,0,0,0,127.73,101.89Z" transform="translate(-85.44 -66.11)"/></g><path class="cls-8" d="M321.9,168.31a41.61,41.61,0,0,1-30.14-12.4,41.37,41.37,0,0,1,0-59.55A41.57,41.57,0,0,1,321.9,84a40.39,40.39,0,0,1,28.9,11.62l-8.12,8.13a29.28,29.28,0,0,0-20.78-8.23,28.92,28.92,0,0,0-21.45,9,31.19,31.19,0,0,0,0,43.41,29,29,0,0,0,21.45,8.95q12.86,0,21.29-8.44,5-5,6.27-14.5H321.9V122.33h38.78a37.2,37.2,0,0,1,.61,7.2q0,17-10,26.95Q340,168.3,321.9,168.31Zm90.1-7.77a27.94,27.94,0,0,1-38.67,0,27.7,27.7,0,0,1,0-38.78,28,28,0,0,1,38.67,0,27.7,27.7,0,0,1,0,38.78Zm-30.13-7.61a14.8,14.8,0,0,0,21.6,0,17.75,17.75,0,0,0,0-23.61,15,15,0,0,0-21.71,0,17.73,17.73,0,0,0,.06,23.61Zm89.59,7.61a28,28,0,0,1-38.68,0,27.7,27.7,0,0,1,0-38.78,28,28,0,0,1,38.68,0,27.7,27.7,0,0,1,0,38.78Zm-30.14-7.61a14.8,14.8,0,0,0,21.6,0,17.75,17.75,0,0,0,.05-23.61,15,15,0,0,0-21.7,0,17.72,17.72,0,0,0,.05,23.61Zm69.22,39.75q-9,0-15.22-4.83a28.15,28.15,0,0,1-8.85-11.21l10.39-4.32a17.56,17.56,0,0,0,5.15,6.79,13,13,0,0,0,8.53,2.88q6.8,0,10.65-4.12T525.05,166v-3.91h-.42q-5,6.18-14.29,6.18-10.39,0-18.21-7.93a26.22,26.22,0,0,1-7.82-19.13A26.53,26.53,0,0,1,492.13,122q7.81-8,18.21-8a19.7,19.7,0,0,1,8.38,1.74,17,17,0,0,1,5.91,4.32h.42v-4.42h11.31V164.4q0,14.19-7.25,21.24T510.54,192.68Zm.83-35.07a13.26,13.26,0,0,0,10.33-4.68,16.91,16.91,0,0,0,4.17-11.68,17.25,17.25,0,0,0-4.17-11.83,13.22,13.22,0,0,0-10.33-4.73,14.12,14.12,0,0,0-10.7,4.73,16.66,16.66,0,0,0-4.42,11.83,16.33,16.33,0,0,0,4.42,11.68A14.18,14.18,0,0,0,511.37,157.61Zm45.15-70.77v79.82H544.59V86.84Zm32.71,81.47A25.92,25.92,0,0,1,570,160.49a26.43,26.43,0,0,1-7.72-19.34q0-11.93,7.46-19.54A24.42,24.42,0,0,1,587.89,114a23.14,23.14,0,0,1,9.16,1.8,21.51,21.51,0,0,1,7,4.62,31.73,31.73,0,0,1,4.42,5.51,32.22,32.22,0,0,1,2.68,5.35l1.23,3.08-36.31,15q4.22,8.24,13.17,8.23,8.22,0,13.37-7.51l9.26,6.17a30.07,30.07,0,0,1-8.74,8.33A24.85,24.85,0,0,1,589.23,168.31Zm-15.12-28,24.27-10.08a8.38,8.38,0,0,0-3.8-4.17,12.42,12.42,0,0,0-6.28-1.59q-5.24,0-9.82,4.32T574.11,140.33Z" transform="translate(-85.44 -66.11)"/><path class="cls-8" d="M675,168.31q-16.25,0-27.25-11t-11-27.47q0-16.44,11-27.46t27.25-11q16.66,0,27.06,12l-6.59,6.38q-7.5-9.36-20.47-9.36a27.91,27.91,0,0,0-20.31,8.12q-8.28,8.13-8.28,21.29t8.28,21.3A27.87,27.87,0,0,0,675,159.25q13.28,0,22.63-10.69l6.59,6.58a35.87,35.87,0,0,1-12.66,9.62A38.76,38.76,0,0,1,675,168.31Z" transform="translate(-85.44 -66.11)"/><path class="cls-8" d="M722.12,166.66h-9.46V93h9.46Z" transform="translate(-85.44 -66.11)"/><path class="cls-8" d="M737.55,122.28q7.31-7.66,18.62-7.67t18.62,7.67q7.31,7.66,7.3,19.18t-7.3,19.18q-7.31,7.67-18.62,7.67t-18.62-7.67q-7.31-7.66-7.3-19.18T737.55,122.28Zm7.05,32.4a15.93,15.93,0,0,0,23.14,0q4.89-5,4.89-13.22t-4.89-13.22a15.91,15.91,0,0,0-23.14,0q-4.89,5-4.89,13.22T744.6,154.68Z" transform="translate(-85.44 -66.11)"/><path class="cls-8" d="M834.45,166.66h-9.06v-7H825a17.39,17.39,0,0,1-6.58,6.12,18.64,18.64,0,0,1-9.36,2.53q-9.46,0-14.35-5.77t-4.88-15.42V116.26h9.46v29.31q0,14.1,12.44,14.09a11.59,11.59,0,0,0,9.57-4.73A17.18,17.18,0,0,0,825,144V116.26h9.47Z" transform="translate(-85.44 -66.11)"/><path class="cls-8" d="M866.54,168.31q-9.78,0-16.87-7.72t-7.1-19.13q0-11.42,7.1-19.13t16.87-7.72a21.41,21.41,0,0,1,10.34,2.47,17.51,17.51,0,0,1,6.84,6.17h.41l-.41-7V93h9.46v73.65h-9v-7h-.41a17.53,17.53,0,0,1-6.84,6.18A21.53,21.53,0,0,1,866.54,168.31Zm1.54-8.65a15.08,15.08,0,0,0,11.37-4.93q4.68-4.93,4.68-13.27t-4.68-13.27a15.43,15.43,0,0,0-22.68.05q-4.74,5-4.73,13.22t4.73,13.22A15,15,0,0,0,868.08,159.66Z" transform="translate(-85.44 -66.11)"/></g></svg>