<?xml version="1.0" encoding="UTF-8"?><svg id="svg5" xmlns="http://www.w3.org/2000/svg" viewBox="0 0 468.1909 614.01274"><defs><style>.cls-1{fill:#3da638;stroke:#1c511c;stroke-linecap:round;stroke-linejoin:round;stroke-width:15.3697px;}</style></defs><g id="surface480"><path id="path2" class="cls-1" d="m262.00604,307.12235c32.25781-11.98047,49.09766-35.05078,49.09766-74.75781s-33.46094-74.69531-75.26953-74.76563c-44.12109-.07031-77.40234,34.91406-76.87109,74.76563s19.53906,66.36328,49.95703,75.94922l-53.88672,132.57031C82.91229,422.2122,9.56073,337.13017,9.56073,232.36454,9.56073,108.2786,109.26385,7.68485,234.23261,7.68485s226.27344,100.59375,226.27344,224.67969c0,106.39453-72.65625,190.29297-146.31641,208.89063l-52.18359-134.13281Z"/></g><g id="flowRoot3742"><path id="path3756" d="m43.05894,507.26908c0,7.48609-1.90358,13.32955-5.71073,17.53037-3.78178,4.1739-9.08641,6.26085-15.91391,6.26085-6.54831,0-11.76411-2.14081-15.64741-6.42242-3.85792-4.28161-5.78688-10.07121-5.78688-17.3688,0-7.45916,1.89089-13.24876,5.67266-17.3688,3.80716-4.14697,9.13718-6.22045,15.99006-6.22045,4.23863,0,7.98234.95596,11.23111,2.86787s5.74881,4.65861,7.5001,8.24008c1.77667,3.55455,2.66501,7.71498,2.66501,12.4813Zm-27.94453,0c0,3.93154.49493,6.93406,1.48479,9.00754.98986,2.04656,2.65232,3.06983,4.98737,3.06983,2.30967,0,3.93406-1.02328,4.87316-3.06983.96448-2.07348,1.44672-5.076,1.44672-9.00754,0-3.90461-.48224-6.85327-1.44672-8.84597s-2.61425-2.98905-4.9493-2.98905c-2.28429,0-3.92137.99635-4.91123,2.98905-.98986,1.96577-1.48479,4.91443-1.48479,8.84597Z"/><path id="path3758" d="m77.39949,531.0603c-2.18277,0-4.13711-.377-5.86303-1.13099-1.7259-.78092-3.43912-2.16773-5.13965-4.16043h-.68529c.45686,3.20448.68529,5.19718.68529,5.9781v18.37862h-14.88598v-65.63792h12.10676l2.09394,5.81653h.68529c2.76653-4.41625,6.58638-6.62438,11.45954-6.62438,4.77164,0,8.51535,2.10041,11.2311,6.30124,2.71577,4.20083,4.07366,9.9635,4.07366,17.28802,0,7.37837-1.42134,13.1949-4.26402,17.44959-2.8173,4.22775-6.64983,6.34163-11.49761,6.34163Zm-4.98737-34.97996c-2.18277,0-3.71832.83478-4.60666,2.50434-.86296,1.64263-1.3325,4.09311-1.40865,7.35145v1.25217c0,3.93154.49493,6.77249,1.48479,8.52283s2.55079,2.62552,4.6828,2.62552c1.90358,0,3.28685-.86171,4.1498-2.58512.86296-1.75034,1.29444-4.63168,1.29444-8.64401,0-3.93154-.43149-6.74556-1.29444-8.44205-.86296-1.72342-2.29698-2.58512-4.30209-2.58512Z"/><path id="path3760" d="m122.43815,531.0603c-7.18284,0-12.76666-2.01963-16.75149-6.05888-3.95944-4.06618-5.93916-9.84232-5.93916-17.32841,0-7.72844,1.84013-13.65269,5.52038-17.77273,3.68025-4.14697,8.93413-6.22045,15.76163-6.22045,6.49755,0,11.5103,1.8042,15.03827,5.4126,3.55335,3.58147,5.33002,8.75172,5.33002,15.51074v7.02831h-26.61202c.10152,2.5582.97717,4.56436,2.62694,6.01849,1.67515,1.45413,3.94675,2.1812,6.81481,2.1812,2.61425,0,5.01276-.25582,7.19553-.76746,2.20815-.53857,4.59397-1.44067,7.15745-2.7063v11.35031c-2.33506,1.26563-4.74625,2.14081-7.2336,2.62552s-5.45692.72707-8.90875.72707Zm-.87565-36.63605c-1.75131,0-3.22341.59242-4.4163,1.77727-1.16753,1.15792-1.85282,2.98905-2.05586,5.49339h12.79205c-.05075-2.20813-.6472-3.97194-1.78936-5.29143-1.11677-1.31949-2.62694-1.97924-4.53052-1.97924Z"/><path id="path3762" d="m177.10892,530.25245v-24.9626c0-3.04291-.41879-5.33182-1.25636-6.86674-.81219-1.56185-2.13201-2.34277-3.95944-2.34277-2.51272,0-4.32747,1.06367-5.44423,3.19101s-1.67515,5.77614-1.67515,10.94638v20.03471h-14.88598v-45.76477h11.23111l1.86551,5.65496h.87565c1.26905-2.15427,3.02034-3.76997,5.25388-4.84711,2.25891-1.07714,4.84778-1.6157,7.7666-1.6157,4.77164,0,8.47727,1.4676,11.1169,4.40279,2.66501,2.93519,3.99751,7.0687,3.99751,12.40052v29.76932h-14.88598Z"/><path id="path3764" d="m251.91954,517.52879c0,4.3624-1.49748,7.71498-4.49244,10.05775-2.99496,2.31584-7.28436,3.47376-12.86819,3.47376-5.60921,0-10.11435-.9021-13.51541-2.7063v-8.19969c4.9493,2.42355,9.55596,3.63533,13.81998,3.63533,5.50769,0,8.26153-1.76381,8.26153-5.29143,0-1.13099-.30457-2.07348-.91372-2.82748s-1.6117-1.53492-3.00765-2.34277-3.33761-1.72342-5.82495-2.74669c-4.84778-1.9927-8.13462-3.9854-9.86054-5.9781-1.70053-1.9927-2.55079-4.57782-2.55079-7.75537,0-3.82383,1.44672-6.78595,4.34016-8.88636,2.91882-2.12734,6.87826-3.19101,11.87833-3.19101,4.9493,0,9.63211,1.06367,14.04841,3.19101l-2.89344,7.14948c-4.54321-1.9927-8.36305-2.98905-11.45954-2.98905-4.72087,0-7.08131,1.4272-7.08131,4.28161,0,1.40028.60915,2.58512,1.82744,3.55455,1.24367.96942,3.93406,2.30238,8.07117,3.99886,3.4772,1.4272,6.00262,2.73323,7.57624,3.91808s2.74115,2.5582,3.50258,4.12004c.76143,1.53492,1.14215,3.37951,1.14215,5.53378Z"/><path id="path3766" d="m298.89985,507.83457c0,7.29759-1.76398,12.99294-5.29195,17.08605s-8.4392,6.13967-14.7337,6.13967c-3.93406,0-7.41126-.94249-10.43161-2.82748s-5.34271-4.59129-6.9671-8.11891-2.43658-7.62073-2.43658-12.27934c0-7.24373,1.75129-12.89869,5.25388-16.96488s8.4392-6.09928,14.80984-6.09928c6.09145,0,10.91385,2.08695,14.46719,6.26085,3.55335,4.14697,5.33002,9.74807,5.33002,16.80331Zm-30.64761,0c0,10.31357,3.59142,15.47035,10.77425,15.47035,7.10669,0,10.66004-5.15678,10.66004-15.47035,0-10.20585-3.57873-15.30878-10.73618-15.30878-3.75639,0-6.48486,1.31949-8.18539,3.95847-1.67515,2.63898-2.51272,6.42242-2.51272,11.35031Z"/><path id="path3768" d="m338.91306,530.25245l-1.25636-5.85692h-.45686c-1.24367,2.07348-3.02034,3.70265-5.33002,4.8875-2.28429,1.18485-4.89854,1.77727-7.84274,1.77727-5.10159,0-8.90875-1.34642-11.42147-4.03926s-3.76908-6.77249-3.76908-12.23895v-29.20382h9.02296v27.54773c0,3.4199.65991,5.99156,1.97972,7.71498,1.31981,1.69649,3.38837,2.54473,6.20566,2.54473,3.75639,0,6.51024-1.18485,8.26153-3.55455,1.77667-2.39663,2.66501-6.39549,2.66501-11.99659v-22.2563h8.98489v44.67417h-7.04324Z"/><path id="path3770" d="m380.06842,484.77042c1.80205,0,3.28685.13464,4.45437.40393l-.87565,8.84597c-1.26905-.32314-2.58887-.48471-3.95944-.48471-3.57873,0-6.48486,1.23871-8.71839,3.71612-2.20815,2.47741-3.31223,5.69535-3.31223,9.65382v23.3469h-8.94682v-44.67417h7.00517l1.18022,7.87655h.45686c1.39596-2.66591,3.2107-4.77979,5.44423-6.34163,2.25891-1.56185,4.6828-2.34277,7.27167-2.34277Z"/><path id="path3772" d="m409.34546,531.0603c-6.37064,0-11.21842-1.96577-14.54334-5.89731-3.29954-3.95847-4.9493-9.62689-4.9493-17.00527,0-7.51302,1.72591-13.28915,5.17773-17.32841,3.4772-4.03926,8.48996-6.05888,15.03827-6.05888,4.44168,0,8.4392.87517,11.99254,2.62552l-2.70308,7.63419c-3.78178-1.56185-6.90364-2.34277-9.3656-2.34277-7.28436,0-10.92654,5.12986-10.92654,15.38957,0,5.00868.90103,8.77865,2.70308,11.30992,1.82744,2.50434,4.49244,3.75651,7.99503,3.75651,3.98482,0,7.75391-1.05021,11.30725-3.15062v8.28048c-1.59901.99635-3.31223,1.70995-5.13966,2.14081-1.80205.43085-3.99751.64628-6.58638.64628Z"/><path id="path3774" d="m449.43481,531.0603c-6.54831,0-11.67528-2.01963-15.38091-6.05888-3.68025-4.06618-5.52038-9.65382-5.52038-16.76291,0-7.29759,1.71322-13.03333,5.13966-17.20723s8.13462-6.26085,14.12455-6.26085c5.55845,0,9.94937,1.79074,13.17276,5.37221s4.83509,8.50937,4.83509,14.78368v5.12986h-28.05874c.12691,4.33547,1.23098,7.67459,3.31223,10.01736,2.08125,2.31584,5.01276,3.47376,8.79453,3.47376,2.48734,0,4.79702-.24236,6.92902-.72707,2.15739-.51164,4.46706-1.34642,6.92902-2.50434v7.71498c-2.18277,1.10406-4.39092,1.88499-6.62445,2.34277s-4.78433.68667-7.65238.68667Zm-1.63708-39.1c-2.84268,0-5.12697.95596-6.85288,2.86787-1.70053,1.91191-2.71577,4.699-3.04573,8.36126h19.11193c-.05076-3.68919-.88834-6.47627-2.51272-8.36126-1.62439-1.91191-3.85792-2.86787-6.7006-2.86787Z"/><path id="path3776" d="m83.64323,613.20489h-8.94682v-44.67417h8.94682v44.67417Zm-9.47981-56.5092c0-1.69649.43148-3.00251,1.29443-3.91808.88834-.91556,2.1447-1.37335,3.76908-1.37335,1.57362,0,2.79191.45778,3.65487,1.37335.88833.91556,1.3325,2.22159,1.3325,3.91808,0,1.6157-.44417,2.8948-1.3325,3.83729-.86296.91556-2.08125,1.37335-3.65487,1.37335-1.62439,0-2.88075-.45778-3.76908-1.37335-.86296-.94249-1.29443-2.22159-1.29443-3.83729Z"/><path id="path3778" d="m133.51697,613.20489h-8.98489v-27.46694c0-3.44683-.65991-6.01849-1.97972-7.71498-1.29443-1.69649-3.36299-2.54473-6.20566-2.54473-3.78178,0-6.54831,1.18485-8.2996,3.55455s-2.62694,6.34163-2.62694,11.91581v22.2563h-8.94682v-44.67417h7.00517l1.25636,5.85692h.45686c1.26905-2.12734,3.07111-3.76997,5.40616-4.92789s4.92392-1.73688,7.7666-1.73688c10.10165,0,15.15248,5.453,15.15248,16.35899v29.12304Z"/><path id="path3780" d="m154.91319,613.20489h-8.94682v-44.67417h8.94682v44.67417Zm-9.47982-56.5092c0-1.69649.43148-3.00251,1.29443-3.91808.88834-.91556,2.1447-1.37335,3.76908-1.37335,1.57362,0,2.79191.45778,3.65487,1.37335.88834.91556,1.33249,2.22159,1.33249,3.91808,0,1.6157-.44415,2.8948-1.33249,3.83729-.86296.91556-2.08125,1.37335-3.65487,1.37335-1.62439,0-2.88075-.45778-3.76908-1.37335-.86296-.94249-1.29443-2.22159-1.29443-3.83729Z"/><path id="path3782" d="m183.4288,606.33815c2.18277,0,4.36554-.36353,6.54831-1.0906v7.14948c-.98986.45778-2.2716.83478-3.84523,1.13099-1.54824.32314-3.15994.48471-4.83509.48471-8.47727,0-12.7159-4.73939-12.7159-14.21818v-24.07397h-5.74881v-4.20083l6.16759-3.47376,3.04573-9.45186h5.52038v9.93657h11.99254v7.18988h-11.99254v23.9124c0,2.28891.533,3.9854,1.59901,5.08946,1.09138,1.07714,2.51272,1.6157,4.26402,1.6157Z"/><path id="path3784" d="m207.29967,613.20489h-8.94682v-44.67417h8.94682v44.67417Zm-9.47982-56.5092c0-1.69649.43148-3.00251,1.29443-3.91808.88834-.91556,2.1447-1.37335,3.76908-1.37335,1.57362,0,2.79191.45778,3.65487,1.37335.88834.91556,1.33249,2.22159,1.33249,3.91808,0,1.6157-.44415,2.8948-1.33249,3.83729-.86296.91556-2.08125,1.37335-3.65487,1.37335-1.62439,0-2.88075-.45778-3.76908-1.37335-.86296-.94249-1.29443-2.22159-1.29443-3.83729Z"/><path id="path3786" d="m246.4753,613.20489l-1.78936-6.22045h-.30457c-2.03048,2.71977-4.07366,4.57782-6.12952,5.57417-2.05586.96942-4.69549,1.45413-7.91889,1.45413-4.13711,0-7.37319-1.18485-9.70825-3.55455-2.30967-2.3697-3.46451-5.72228-3.46451-10.05775,0-4.60475,1.6117-8.07851,4.83509-10.42128s8.13462-3.62187,14.7337-3.83729l7.27167-.24236v-2.38316c0-2.85441-.63453-4.98175-1.90358-6.38202-1.24367-1.4272-3.18532-2.14081-5.82495-2.14081-2.15739,0-4.22594.3366-6.20566,1.00981s-3.8833,1.4676-5.71073,2.38316l-2.89344-6.78595c2.28429-1.26563,4.78433-2.22159,7.5001-2.86787,2.71577-.67321,5.27926-1.00981,7.69046-1.00981,5.3554,0,9.39099,1.23871,12.10676,3.71612,2.74115,2.47741,4.11173,6.36856,4.11173,11.67345v30.09246h-6.39602Zm-13.32505-6.46281c3.24877,0,5.85033-.95596,7.80467-2.86787,1.97972-1.93884,2.96958-4.64514,2.96958-8.11891v-3.87769l-5.40616.24236c-4.21325.16157-7.28436.91556-9.21332,2.26198-1.90358,1.31949-2.85537,3.35258-2.85537,6.09928,0,1.9927.55838,3.54108,1.67515,4.64514,1.11677,1.07714,2.79191,1.6157,5.02545,1.6157Z"/><path id="path3788" d="m281.04428,606.33815c2.18277,0,4.36554-.36353,6.54831-1.0906v7.14948c-.98986.45778-2.2716.83478-3.84523,1.13099-1.54824.32314-3.15994.48471-4.83509.48471-8.47727,0-12.7159-4.73939-12.7159-14.21818v-24.07397h-5.74881v-4.20083l6.16759-3.47376,3.04573-9.45186h5.52038v9.93657h11.99254v7.18988h-11.99254v23.9124c0,2.28891.533,3.9854,1.59901,5.08946,1.09138,1.07714,2.51272,1.6157,4.26402,1.6157Z"/><path id="path3790" d="m304.91516,613.20489h-8.94682v-44.67417h8.94682v44.67417Zm-9.47982-56.5092c0-1.69649.43148-3.00251,1.29443-3.91808.88834-.91556,2.1447-1.37335,3.76908-1.37335,1.57362,0,2.79191.45778,3.65487,1.37335.88834.91556,1.3325,2.22159,1.3325,3.91808,0,1.6157-.44417,2.8948-1.3325,3.83729-.86296.91556-2.08125,1.37335-3.65487,1.37335-1.62439,0-2.88075-.45778-3.76908-1.37335-.86296-.94249-1.29443-2.22159-1.29443-3.83729Z"/><path id="path3792" d="m327.33931,613.20489l-15.99006-44.67417h9.44175l8.5661,25.97242c1.4721,4.3624,2.36044,7.89001,2.66501,10.58285h.30457c.22843-1.93884,1.11677-5.46646,2.66501-10.58285l8.5661-25.97242h9.51789l-16.0662,44.67417h-9.67018Z"/><path id="path3794" d="m377.86027,614.01274c-6.54831,0-11.67528-2.01963-15.38091-6.05888-3.68025-4.06618-5.52038-9.65382-5.52038-16.76291,0-7.29759,1.71322-13.03333,5.13966-17.20723s8.13462-6.26085,14.12455-6.26085c5.55845,0,9.94937,1.79074,13.17276,5.37221s4.83509,8.50937,4.83509,14.78368v5.12986h-28.05874c.12691,4.33547,1.23098,7.67459,3.31223,10.01736,2.08125,2.31584,5.01276,3.47376,8.79453,3.47376,2.48734,0,4.79702-.24236,6.92902-.72707,2.15739-.51164,4.46706-1.34642,6.92902-2.50434v7.71498c-2.18277,1.10406-4.39092,1.88499-6.62445,2.34277s-4.78433.68667-7.65238.68667Zm-1.63708-39.1c-2.84268,0-5.12697.95596-6.85288,2.86787-1.70053,1.91191-2.71577,4.699-3.04573,8.36126h19.11193c-.05076-3.68919-.88834-6.47627-2.51272-8.36126-1.62439-1.91191-3.85792-2.86787-6.7006-2.86787Z"/><g id="flowRoot3797"><path id="path3805" d="m411.98117,562.21977h1.89844c.9375,0,1.6875-.24023,2.25-.7207.57422-.49219.86133-1.11328.86133-1.86328,0-.87891-.25195-1.50586-.75586-1.88086-.50391-.38672-1.30078-.58008-2.39063-.58008h-1.86328v5.04492Zm7.62891-2.6543c0,.9375-.25195,1.76953-.75586,2.49609-.49219.71484-1.18945,1.24805-2.0918,1.59961l4.18359,6.94336h-2.95313l-3.63867-6.22266h-2.37305v6.22266h-2.60156v-15.66211h4.58789c1.94531,0,3.36914.38086,4.27148,1.14258.91406.76172,1.37109,1.92188,1.37109,3.48047Zm-18.58008,3.19922c0-2.34375.58594-4.54102,1.75781-6.5918s2.7832-3.66797,4.83398-4.85156,4.25977-1.77539,6.62695-1.77539c2.34375,0,4.54102.58594,6.5918,1.75781s3.66797,2.7832,4.85156,4.83398,1.77539,4.25977,1.77539,6.62695c0,2.30859-.56836,4.47656-1.70508,6.50391s-2.73047,3.65039-4.78125,4.86914-4.29492,1.82813-6.73242,1.82813c-2.42578,0-4.66406-.60352-6.71484-1.81055-2.05078-1.21875-3.65039-2.8418-4.79883-4.86914-1.13672-2.02734-1.70508-4.20117-1.70508-6.52148Zm1.8457,0c0,2.02734.50977,3.92578,1.5293,5.69531,1.01953,1.75781,2.4082,3.14648,4.16602,4.16602,1.76953,1.00781,3.66211,1.51172,5.67773,1.51172,2.03906,0,3.93164-.50977,5.67773-1.5293s3.12891-2.39648,4.14844-4.13086c1.03125-1.74609,1.54688-3.65039,1.54688-5.71289,0-2.03906-.50977-3.93164-1.5293-5.67773s-2.40234-3.12891-4.14844-4.14844c-1.73438-1.03125-3.63281-1.54688-5.69531-1.54688-2.03906,0-3.93164.50977-5.67773,1.5293s-3.13477,2.40234-4.16602,4.14844c-1.01953,1.73438-1.5293,3.63281-1.5293,5.69531Z"/></g></g></svg>