<?xml version="1.0" encoding="UTF-8"?><svg id="Layer_1" xmlns="http://www.w3.org/2000/svg" viewBox="0 0 217.57399 156.097"><defs><style>.cls-1{fill:#f9ad00;}.cls-1,.cls-2{stroke-width:0px;}.cls-2{fill:#fff;}</style></defs><path class="cls-1" d="M217.57399,48.78h-48.78V0h48.78v48.78ZM163.90599,48.78h-48.781V0h48.781v48.78ZM110.247,48.78h-48.78V0h48.78v48.78ZM217.57399,102.439h-48.78v-48.781h48.78v48.781Z"/><path class="cls-2" d="M163.90599,102.439h-48.781v-48.781h48.781v48.781ZM163.90599,156.097h-48.781v-48.78h48.781v48.78ZM217.57399,156.097h-48.78v-48.78h48.78v48.78ZM110.247,156.097h-48.78v-48.78h48.78v48.78ZM9.137,67.374c1.64,0,3.155.218,4.549.655,1.42.41,2.636,1.052,3.646,1.926,1.011.874,1.803,1.98,2.377,3.319.574,1.31.86,2.882.86,4.712,0,1.748-.245,3.278-.737,4.59-.492,1.31-1.188,2.417-2.09,3.318-.901.874-1.994,1.53-3.278,1.967-1.256.437-2.663.656-4.22.656-1.175,0-2.268-.178-3.278-.533v6.802c-.274.082-.71.164-1.312.246-.6.109-1.215.164-1.844.164-.6,0-1.147-.041-1.639-.123-.4294-.06752-.83659-.23615-1.188-.492-.328-.246-.574-.587-.737-1.024-.164-.41-.246-.957-.246-1.64v-19.66702c0-.737.15-1.338.45-1.803.328-.464.765-.888,1.312-1.27.846-.546,1.898-.983,3.155-1.311,1.256-.328,2.663-.492,4.22-.492ZM9.219,83.026c2.814,0,4.22-1.68,4.22-5.04,0-1.749-.354-3.046-1.065-3.893-.683-.847-1.68-1.27-2.99-1.27-.52,0-.984.068-1.394.205-.41.11-.765.246-1.065.41v9.014c.327.164.682.3,1.065.41.382.11.792.164,1.23.164l-.001-.00002ZM36.589,75.281c0-.846-.246-1.461-.737-1.844-.465-.41-1.107-.614-1.926-.614-.547,0-1.093.068-1.64.205-.518.136-.969.341-1.351.614v14.219c-.273.082-.71.164-1.312.246-.573.082-1.174.123-1.803.123-.6,0-1.147-.041-1.639-.123-.42942-.06744-.83663-.23608-1.188-.492-.33709-.25782-.60451-.5957-.778-.983-.164-.437-.246-.997-.246-1.68v-12.293c0-.738.15-1.339.45-1.803.328-.464.765-.888,1.312-1.27.928-.656,2.09-1.188,3.483-1.598,1.42-.41,2.99-.615,4.712-.615,3.087,0,5.463.683,7.13,2.049,1.666,1.339,2.5,3.21,2.5,5.614v12.825c-.274.082-.711.164-1.312.246-.574.082-1.175.123-1.803.123-.601,0-1.147-.041-1.639-.123-.42942-.06744-.83663-.23608-1.188-.492-.33746-.2577-.60522-.59559-.779-.983-.164-.437-.246-.997-.246-1.68v-9.67101ZM56.996,67.374c1.639,0,3.155.219,4.548.656,1.42.41,2.636,1.052,3.647,1.926,1.01.874,1.802,1.98,2.376,3.319.574,1.31.86,2.882.86,4.712,0,1.748-.245,3.278-.737,4.59-.492,1.31-1.188,2.417-2.09,3.318-.901.874-1.994,1.53-3.278,1.967-1.256.437-2.663.656-4.22.656-1.175,0-2.267-.178-3.278-.533v6.802c-.273.082-.71.164-1.312.246-.6.109-1.215.164-1.843.164-.601,0-1.148-.041-1.64-.123-.4294-.06752-.83659-.23615-1.188-.492-.328-.246-.573-.587-.737-1.024-.164-.41-.246-.957-.246-1.64v-19.66801c0-.737.15-1.338.45-1.803.328-.464.765-.888,1.312-1.27.847-.546,1.898-.983,3.155-1.311,1.257-.328,2.663-.492,4.22-.492h.00099ZM57.077,83.027c2.814,0,4.22-1.68,4.22-5.04,0-1.749-.354-3.046-1.064-3.893-.683-.847-1.68-1.27-2.992-1.27-.519,0-.983.068-1.393.205-.41.11-.765.246-1.065.41v9.014c.328.164.683.3,1.065.41.383.11.792.164,1.23.164l-.001-.00002ZM81.374,67.374c1.12,0,2.213.164,3.278.492,1.093.3,2.035.765,2.828,1.393.82-.546,1.734-.997,2.745-1.352,1.038-.355,2.281-.533,3.729-.533,1.038,0,2.049.137,3.032.41,1.011.273,1.899.71,2.663,1.311.793.574,1.421,1.352,1.885,2.336.465.956.697,2.13.697,3.524v12.907c-.273.082-.71.164-1.311.246-.574.082-1.175.123-1.803.123-.54878.00404-1.09697-.03709-1.639-.123-.42977-.06729-.83734-.23594-1.189-.492-.33698-.25794-.60436-.59579-.778-.983-.164-.437-.246-.997-.246-1.68v-9.793c0-.82-.232-1.407-.697-1.762-.464-.383-1.092-.574-1.884-.574-.383,0-.793.095-1.23.287-.437.164-.764.341-.983.532.027.11.04.219.04.328v13.891c-.3.082-.75.164-1.351.246-.574.082-1.161.123-1.762.123s-1.148-.041-1.64-.123c-.42942-.06744-.83663-.23608-1.188-.492-.33709-.25782-.60451-.5957-.778-.983-.164-.437-.246-.997-.246-1.68v-9.793c0-.82-.26-1.407-.779-1.762-.491-.383-1.092-.574-1.802-.574-.492,0-.915.082-1.27.246-.30975.11574-.61113.25273-.902.41v14.382c-.273.082-.71.164-1.311.246-.59733.08363-1.19984.12473-1.803.123-.601,0-1.148-.041-1.64-.123-.42942-.06744-.83663-.23608-1.188-.492-.33709-.25782-.60451-.5957-.778-.983-.164-.437-.246-.997-.246-1.68v-12.37601c0-.737.15-1.325.45-1.762.329-.437.766-.847,1.312-1.23.929-.655,2.076-1.188,3.442-1.597,1.41065-.41236,2.87332-.61948,4.343-.615l.00002.001Z"/></svg>