<svg id="Logos" xmlns="http://www.w3.org/2000/svg" viewBox="0 0 504 144"><defs><style>.cls-1{fill:#5b7ebd;stroke-width:6.08px;}.cls-1,.cls-2,.cls-3{stroke:#202124;stroke-miterlimit:10;}.cls-2{fill:#fff;stroke-width:6.15px;}.cls-3{fill:#ce4d42;stroke-width:6.09px;}.cls-4{fill:#777c82;}</style></defs><polygon class="cls-1" points="25.88 102.82 25.88 127 130.21 127 103.61 102.82 25.88 102.82"/><polygon class="cls-2" points="84.28 60.48 25.72 60.48 25.72 85.17 84.21 85.17 70.66 72.86 84.28 60.48"/><polygon class="cls-3" points="25.74 19.2 25.74 43.39 103.07 43.39 129.67 19.2 25.74 19.2"/><path d="M198,101.23c-.1.78-.49,1-1.17,1H155.5c-.78,0-1-.29-1-1V39.79c0-.68.2-.88,1-.88h40.37c.88,0,1.07.1,1.27.78l1.36,12.48c.1.59-.19,1.17-.78,1.17H171.59V62.8h24.09c.58,0,.87.2.87.88V76.46c0,.58-.39.68-.87.68H171.59V87.77H199c.88,0,1,.29.88,1Z"/><path d="M206.23,102.2c-1,0-1.07-.39-1.07-1.27v-61c0-.69.19-1,.88-1h15.31c.58,0,.78.29.78.88v48h26.42c.69,0,.88.29.78,1l-2,12.49a1.09,1.09,0,0,1-1.27,1Z"/><path d="M253.83,99.86c-.68-.29-.87-.88-.87-1.75v-14c0-.59.39-.88,1-.59a36.79,36.79,0,0,0,19,5.17c6.14,0,8.29-1.65,8.29-4s-1.66-3.61-8.19-6.25l-4.39-1.75c-11.12-4.39-15.8-10.24-15.8-19,0-9.94,7.41-19.79,25.26-19.79,6,0,11.89.87,15.6,2.43.59.1.78.59.78,1.27V55.1c0,.29-.29.78-1.07.49C289.14,53.15,283.09,52,277.34,52c-5.95,0-7.9,2.14-7.9,4.29,0,1.85.88,3.41,8.19,6.14l3.9,1.47C295.38,69,298.4,75.19,298.4,83.38c0,13.07-11.31,19.8-26.72,19.8C264.17,103.18,258.22,102,253.83,99.86Z"/><path d="M364.26,70.12c0,19.6-12,33.06-31.2,33.06-19.41,0-31-13.36-31-32.77,0-17.94,11.8-32.47,31.2-32.47C353.34,37.94,364.26,53.25,364.26,70.12ZM333.54,88.74c8.29,0,13.17-6.43,13.17-18.23,0-11-4.68-18.14-13.75-18.14-8.68,0-13.36,7.31-13.36,18.14C319.6,81.14,324.48,88.74,333.54,88.74Z"/><path d="M384.88,76.65c0,7,2.83,12.09,10.54,12.09,5.65,0,9.94-3.61,9.94-12.09V40c0-.78.29-1.07,1.08-1.07h14.92c.78,0,1.07.29,1.07,1.07V77.63c0,17.94-12.29,25.55-27.31,25.55-17,0-27.2-8.1-27.2-24.87V40c0-.78.19-1.07,1-1.07H384c.68,0,.87.29.87.88Z"/><path d="M429.86,102.2c-1,0-1.08-.39-1.08-1.27v-61c0-.69.2-1,.88-1H445c.59,0,.78.29.78.88v48h26.43c.68,0,.88.29.78,1l-2,12.49a1.08,1.08,0,0,1-1.27,1Z"/><path class="cls-4" d="M342.09,128.67c-.32,0-.36-.13-.36-.41v-20c0-.23.07-.32.29-.32h5c.19,0,.25.09.25.28v15.75H356c.23,0,.29.09.26.32l-.67,4.09a.36.36,0,0,1-.42.32Z"/><path class="cls-4" d="M381.23,124.48,380,128.32a.4.4,0,0,1-.45.35h-4.64c-.32,0-.39-.16-.32-.41l6.08-17.76a7.22,7.22,0,0,0,.35-2.34.23.23,0,0,1,.26-.25h6.33c.16,0,.23,0,.29.19L395,128.29c.1.26,0,.38-.19.38h-5.28a.36.36,0,0,1-.38-.25l-1.32-3.94Zm5.31-4.7c-.6-2.15-1.44-4.9-2.08-7.27h0c-.48,2.28-1.41,5.25-2,7.27Z"/><path class="cls-4" d="M413.45,108.29c0-.26.06-.32.25-.35.74,0,3.39-.13,7.23-.13,7.17,0,8.55,3.33,8.55,5.63a5,5,0,0,1-1.92,4.1,5.19,5.19,0,0,1,2.85,4.77c0,4.06-3.56,6.52-9.54,6.46-2.43,0-6.18-.1-7.17-.1-.19,0-.25-.13-.25-.32Zm5.47,7.42h2.4c.86,0,1.76.1,2.17.13a2.35,2.35,0,0,0,.55-1.6c0-.83-.29-2-2.88-2-.83,0-1.7,0-2.24.06Zm0,8.55c.51,0,1.53.06,2.37.06,2.17,0,3.32-.7,3.32-2s-1-2.08-3.39-2.08h-2.3Z"/><path class="cls-4" d="M467.24,118.15c0,6.43-3.94,10.84-10.24,10.84s-10.17-4.38-10.17-10.75c0-5.89,3.87-10.65,10.23-10.65C463.66,107.59,467.24,112.61,467.24,118.15Zm-10.08,6.11c2.72,0,4.32-2.11,4.32-6,0-3.61-1.54-6-4.51-6s-4.39,2.4-4.39,6S454.18,124.26,457.16,124.26Z"/></svg>