<?xml version="1.0" encoding="UTF-8" standalone="no"?>
<!-- Created with Inkscape (http://www.inkscape.org/) -->

<svg
   xmlns:dc="http://purl.org/dc/elements/1.1/"
   xmlns:cc="http://creativecommons.org/ns#"
   xmlns:rdf="http://www.w3.org/1999/02/22-rdf-syntax-ns#"
   xmlns:svg="http://www.w3.org/2000/svg"
   xmlns="http://www.w3.org/2000/svg"
   xmlns:sodipodi="http://sodipodi.sourceforge.net/DTD/sodipodi-0.dtd"
   xmlns:inkscape="http://www.inkscape.org/namespaces/inkscape"
   width="150.99991mm"
   height="29.992689mm"
   viewBox="0 0 150.99991 29.992689"
   version="1.1"
   id="svg7126"
   inkscape:version="0.92.0 r15299"
   sodipodi:docname="biglobe.svg">
  <defs
     id="defs7120">
    <clipPath
       id="clipPath7016"
       clipPathUnits="userSpaceOnUse">
      <path
         inkscape:connector-curvature="0"
         id="path7014"
         d="M 0,595.28 H 841.89 V 0 H 0 Z" />
    </clipPath>
  </defs>
  <sodipodi:namedview
     id="base"
     pagecolor="#ffffff"
     bordercolor="#666666"
     borderopacity="1.0"
     inkscape:pageopacity="0.0"
     inkscape:pageshadow="2"
     inkscape:zoom="1.5822093"
     inkscape:cx="283.4644"
     inkscape:cy="54.789334"
     inkscape:document-units="mm"
     inkscape:current-layer="layer1"
     showgrid="false"
     fit-margin-top="0"
     fit-margin-left="0"
     fit-margin-right="0"
     fit-margin-bottom="0"
     inkscape:window-width="1280"
     inkscape:window-height="744"
     inkscape:window-x="-4"
     inkscape:window-y="-4"
     inkscape:window-maximized="1" />
  <metadata
     id="metadata7123">
    <rdf:RDF>
      <cc:Work
         rdf:about="">
        <dc:format>image/svg+xml</dc:format>
        <dc:type
           rdf:resource="http://purl.org/dc/dcmitype/StillImage" />
        <dc:title></dc:title>
      </cc:Work>
    </rdf:RDF>
  </metadata>
  <g
     inkscape:label="Layer 1"
     inkscape:groupmode="layer"
     id="layer1"
     transform="translate(-54.267902,-173.40246)">
    <g
       id="g7271"
       transform="translate(0.50000022,-0.50000217)">
      <path
         d="m 162.70219,188.89849 c 0,8.00594 -6.49005,14.49599 -14.49599,14.49599 -8.00594,0 -14.49635,-6.49005 -14.49635,-14.49599 0,-8.00594 6.49041,-14.49599 14.49635,-14.49599 8.00594,0 14.49599,6.49005 14.49599,14.49599"
         style="fill:#0994dc;fill-opacity:1;fill-rule:nonzero;stroke:none;stroke-width:0.35277778"
         id="path7020"
         inkscape:connector-curvature="0" />
      <path
         d="m 156.06193,180.5953 c 0,1.60796 -1.30351,2.91147 -2.91183,2.91147 -1.60796,0 -2.91147,-1.30351 -2.91147,-2.91147 0,-1.60796 1.30351,-2.91147 2.91147,-2.91147 1.60832,0 2.91183,1.30351 2.91183,2.91147"
         style="fill:#ffffff;fill-opacity:1;fill-rule:nonzero;stroke:none;stroke-width:0.35277778"
         id="path7024"
         inkscape:connector-curvature="0" />
      <path
         d="m 154.6868,180.5953 c 0,0.84843 -0.68792,1.53635 -1.53635,1.53635 -0.84878,0 -1.5367,-0.68792 -1.5367,-1.53635 0,-0.84843 0.68792,-1.53635 1.5367,-1.53635 0.84843,0 1.53635,0.68792 1.53635,1.53635"
         style="fill:#3d3a9b;fill-opacity:1;fill-rule:nonzero;stroke:none;stroke-width:0.35277778"
         id="path7028"
         inkscape:connector-curvature="0" />
      <path
         d="m 145.96275,180.5953 c 0,1.60796 -1.30387,2.91147 -2.91147,2.91147 -1.60832,0 -2.91183,-1.30351 -2.91183,-2.91147 0,-1.60796 1.30351,-2.91147 2.91183,-2.91147 1.6076,0 2.91147,1.30351 2.91147,2.91147"
         style="fill:#ffffff;fill-opacity:1;fill-rule:nonzero;stroke:none;stroke-width:0.35277778"
         id="path7032"
         inkscape:connector-curvature="0" />
      <path
         d="m 144.58755,180.5953 c 0,0.84843 -0.68792,1.53635 -1.53635,1.53635 -0.84843,0 -1.5367,-0.68792 -1.5367,-1.53635 0,-0.84843 0.68827,-1.53635 1.5367,-1.53635 0.84843,0 1.53635,0.68792 1.53635,1.53635"
         style="fill:#3d3a9b;fill-opacity:1;fill-rule:nonzero;stroke:none;stroke-width:0.35277778"
         id="path7036"
         inkscape:connector-curvature="0" />
      <path
         inkscape:connector-curvature="0"
         id="path7038"
         style="fill:#0994dc;fill-opacity:1;fill-rule:nonzero;stroke:none;stroke-width:0.35277778"
         d="m 76.063995,202.93008 h 2.40418 v -28.02749 h -2.40418 z" />
      <path
         d="m 119.98073,174.90242 h -2.40418 v 28.02784 h 14.52457 v -2.29729 h -12.12039 z"
         style="fill:#0994dc;fill-opacity:1;fill-rule:nonzero;stroke:none;stroke-width:0.35277778"
         id="path7042"
         inkscape:connector-curvature="0" />
      <path
         d="m 204.26781,177.20002 v -2.29764 h -14.52492 v 28.02784 h 14.52492 v -2.29729 h -12.12039 v -10.67505 h 12.12039 v -2.29694 h -12.12039 v -10.46092 z"
         style="fill:#0994dc;fill-opacity:1;fill-rule:nonzero;stroke:none;stroke-width:0.35277778"
         id="path7046"
         inkscape:connector-curvature="0" />
      <path
         d="m 63.641913,200.63255 h -6.969478 v -11.21022 h 6.969478 c 3.095625,0 5.604933,2.50966 5.604933,5.60529 0,3.09562 -2.509308,5.60493 -5.604933,5.60493 m -6.969478,-23.43221 h 5.968647 c 2.740378,0 4.96182,2.22145 4.96182,4.96182 0,2.74038 -2.221442,4.96218 -4.96182,4.96218 v 3.5e-4 h -5.968647 z m 10.389306,10.71104 c 1.723672,-1.32715 2.838802,-3.40536 2.838802,-5.74922 0,-4.00932 -3.250141,-7.25946 -7.259461,-7.25946 h -8.37318 v 28.02749 h 9.374011 c 4.364567,0 7.902575,-3.53801 7.902575,-7.90257 0,-3.13796 -1.833033,-5.84024 -4.482747,-7.11624"
         style="fill:#0994dc;fill-opacity:1;fill-rule:nonzero;stroke:none;stroke-width:0.35277778"
         id="path7050"
         inkscape:connector-curvature="0" />
      <path
         d="m 177.32106,200.63255 h -6.96948 v -11.21022 h 6.96948 c 3.09562,0 5.60493,2.50966 5.60493,5.60529 0,3.09562 -2.50931,5.60493 -5.60493,5.60493 m -6.96948,-23.43221 h 5.96865 c 2.74038,0 4.96182,2.22145 4.96182,4.96182 0,2.74038 -2.22144,4.96218 -4.96182,4.96218 v 3.5e-4 h -5.96865 z m 10.38931,10.71104 c 1.72367,-1.32715 2.8388,-3.40536 2.8388,-5.74922 0,-4.00932 -3.25014,-7.25946 -7.25946,-7.25946 h -8.37318 v 28.02749 h 9.37401 c 4.36457,0 7.90257,-3.53801 7.90257,-7.90257 0,-3.13796 -1.83303,-5.84024 -4.48274,-7.11624"
         style="fill:#0994dc;fill-opacity:1;fill-rule:nonzero;stroke:none;stroke-width:0.35277778"
         id="path7054"
         inkscape:connector-curvature="0" />
      <path
         d="m 97.849821,189.99806 v 2.29694 h 11.849809 c -1.47356,5.05883 -6.14892,8.76723 -11.677301,8.76723 -6.707011,0 -12.163424,-5.45641 -12.163424,-12.16343 0,-6.70701 5.456413,-12.16342 12.163424,-12.16342 4.433711,0 8.308971,2.39183 10.434811,5.94536 h 2.64054 c -2.33362,-4.88597 -7.3092,-8.27828 -13.075351,-8.27828 -7.993238,0 -14.496344,6.50311 -14.496344,14.49634 0,7.99324 6.503106,14.49635 14.496344,14.49635 7.622471,0 13.875811,-5.9175 14.440601,-13.3978 z"
         style="fill:#0994dc;fill-opacity:1;fill-rule:nonzero;stroke:none;stroke-width:0.35277778"
         id="path7058"
         inkscape:connector-curvature="0" />
    </g>
  </g>
</svg>
