<?xml version="1.0" encoding="utf-8"?>
<!-- Generator: Adobe Illustrator 24.2.0, SVG Export Plug-In . SVG Version: 6.00 Build 0)  -->
<svg version="1.1" id="Layer_1" xmlns="http://www.w3.org/2000/svg" xmlns:xlink="http://www.w3.org/1999/xlink" x="0px" y="0px"
	 viewBox="0 0 1280 935" style="enable-background:new 0 0 1280 935;" xml:space="preserve">
<style type="text/css">
	.st0{fill:#DC0C03;}
</style>
<path id="c_net" class="st0" d="M327.2,17.5H382v900h-54.9V17.5z M101.9,345.1c0.8-57.5,99.1-59.1,99.1-2.5l0.8,48.5h74.5V346
	c4.9-150.3-252.2-150.3-250.6-3.3v259.5c-1.6,147,255.5,150.3,250.6,0V548h-76.2v58.3c0,56.7-98.3,57.5-99.1,0V343.5L101.9,345.1z
	 M529.4,286.8c0,0,13.1-19.7,47.5-38.6c43.4-24.6,86,0,79.4-2.5c34.4,15.6,47.5,51.7,50,93.6v307.1h48.3v55.8H631V335.3
	c0-53.4-90.1-51.7-90.9,2.5v364.6H428.7v-56.7h35.2V301.6h-41.8v-55.8h107.3L529.4,286.8L529.4,286.8z M1091.3,600.5
	c2.5,41.1,15.6,78,50,93.6c-6.6-2.5,17.2,9,40.1,8.2h72.9v-56.7c0,0-30.3-0.8-46.7,0c-20.5,0-38.5-9.9-40.1-38.6l0,0V301.6h72.9v-55
	h-72.9V127.5h-76.2V600.5L1091.3,600.5L1091.3,600.5z M953.7,547.2v58.3c0,56.7-98.3,57.5-99.1,0V484.7h160.5
	c7.6-0.2,13.7-6.4,13.9-14V346c4.9-150.3-252.2-150.3-250.6-3.3v259.5c-1.6,147,255.5,150.3,250.6,0V548h-75.4V547.2L953.7,547.2z
	 M854.5,341.9c0.8-56.7,99.1-55.8,99.1,0v84.6h-98.3L854.5,341.9L854.5,341.9L854.5,341.9z"/>
</svg>
