<?xml version="1.0" encoding="UTF-8" standalone="no"?>
<svg
   xmlns:dc="http://purl.org/dc/elements/1.1/"
   xmlns:cc="http://creativecommons.org/ns#"
   xmlns:rdf="http://www.w3.org/1999/02/22-rdf-syntax-ns#"
   xmlns:svg="http://www.w3.org/2000/svg"
   xmlns="http://www.w3.org/2000/svg"
   version="1.1"
   id="svg9176"
   viewBox="0 0 502.00001 110.87799"
   height="110.87799"
   width="502">
  <defs
     id="defs9178" />
  <metadata
     id="metadata9181">
    <rdf:RDF>
      <cc:Work
         rdf:about="">
        <dc:format>image/svg+xml</dc:format>
        <dc:type
           rdf:resource="http://purl.org/dc/dcmitype/StillImage" />
        <dc:title></dc:title>
      </cc:Work>
    </rdf:RDF>
  </metadata>
  <g
     transform="translate(-260.52232,-469.13529)"
     id="layer1">
    <g
       style="fill:#231F20"
       transform="matrix(-4.4702727,0,0,4.4702727,264.36999,477.87332)"
       id="g3374">
      <path
         id="path3376"
         style="fill:#231F20;fill-opacity:1;fill-rule:nonzero;stroke:none"
         d="m 0,0 c 0,-0.708 -0.627,-1.217 -1.451,-1.217 l -4.998,0 c -0.827,0 -1.5,0.496 -1.5,1.217 0,0.697 0.64,1.164 1.5,1.164 l 4.998,0 C -0.67,1.164 0,0.671 0,0" />
    </g>
    <g
       style="fill:#231F20"
       transform="matrix(-4.4702727,0,0,4.4702727,264.36999,511.46742)"
       id="g3378">
      <path
         id="path3380"
         style="fill:#231F20;fill-opacity:1;fill-rule:nonzero;stroke:none"
         d="m 0,0 c 0,-0.717 -0.627,-1.224 -1.451,-1.224 l -4.998,0 c -0.827,0 -1.5,0.501 -1.5,1.224 0,0.686 0.64,1.156 1.5,1.156 l 4.998,0 C -0.67,1.156 0,0.66 0,0" />
    </g>
    <g
       style="fill:#231F20"
       transform="matrix(-4.4702727,0,0,4.4702727,264.36999,529.44686)"
       id="g3382">
      <path
         id="path3384"
         style="fill:#231F20;fill-opacity:1;fill-rule:nonzero;stroke:none"
         d="m 0,0 c 0,-0.717 -0.627,-1.223 -1.451,-1.223 l -4.998,0 c -0.827,0 -1.5,0.5 -1.5,1.223 0,0.687 0.64,1.16 1.5,1.16 l 4.998,0 C -0.67,1.16 0,0.662 0,0" />
    </g>
    <g
       style="fill:#231F20"
       transform="matrix(-4.4702727,0,0,4.4702727,261.52232,494.66817)"
       id="g3386">
      <path
         id="path3388"
         style="fill:#231F20;fill-opacity:1;fill-rule:nonzero;stroke:none"
         d="m 0,0 c 0,-0.713 -0.627,-1.216 -1.456,-1.216 l -6.093,0 c -0.821,0 -1.495,0.49 -1.495,1.216 0,0.692 0.639,1.159 1.495,1.159 l 6.093,0 C -0.674,1.159 0,0.666 0,0" />
    </g>
    <g
       style="fill:#231F20"
       transform="matrix(-4.4702727,0,0,4.4702727,371.89335,478.06111)"
       id="g3390">
      <path
         id="path3392"
         style="fill:#231F20;fill-opacity:1;fill-rule:nonzero;stroke:none"
         d="m 0,0 c -0.807,0 -1.465,0.485 -1.465,1.194 0,0.68 0.623,1.24 1.465,1.24 l 3.486,0 c 0.741,0 1.494,0.461 1.494,1.1 0,0.601 -0.796,1.047 -1.494,1.047 l -2.959,0 c -0.753,0 -1.365,0.48 -1.365,1.173 0,0.668 0.58,1.12 1.365,1.12 l 11.948,0 c 0.709,0 1.326,-0.477 1.326,-1.12 0,-0.685 -0.578,-1.173 -1.326,-1.173 l -2.848,0 c -0.772,0 -1.512,-0.42 -1.512,-1.047 0,-0.653 0.768,-1.1 1.512,-1.1 l 3.672,0 c 0.764,0 1.428,-0.59 1.428,-1.24 C 14.727,0.493 14.105,0 13.299,0 L 9.631,0 C 7.547,0 8.162,-1.773 6.555,-1.773 4.949,-1.773 5.566,0 3.48,0 L 0,0" />
    </g>
    <g
       style="fill:#231F20"
       transform="matrix(-4.4702727,0,0,4.4702727,274.43712,560.05482)"
       id="g3394">
      <path
         id="path3396"
         style="fill:#231F20;fill-opacity:1;fill-rule:nonzero;stroke:none"
         d="m 0,0 c 0,1.315 -0.453,1.93 -1.59,1.93 -1.135,0 -1.664,-0.504 -1.664,-1.93 0,-1.427 0.586,-1.865 1.664,-1.865 C -0.563,-1.865 0,-1.32 0,0 Z m 2.451,-2.07 c 0,-1.275 -0.877,-2.174 -2.158,-2.174 l -3.858,0 c -1.336,0 -2.175,0.947 -2.175,2.174 l 0,4.369 c 0,1.174 0.968,1.942 2.175,1.942 l 3.858,0 c 1.138,0 2.158,-0.737 2.158,-1.942 l 0,-4.369" />
    </g>
    <g
       style="fill:#231F20"
       transform="matrix(-4.4702727,0,0,4.4702727,342.44341,527.176)"
       id="g3398">
      <path
         id="path3400"
         style="fill:#231F20;fill-opacity:1;fill-rule:nonzero;stroke:none"
         d="m 0,0 c -0.51,0 -0.912,0.627 -0.912,1.467 l 0,3.064 c 0,4.494 -2.963,6.252 -5.033,6.877 -1.211,0.361 -1.793,-0.039 -1.977,-0.551 -0.182,-0.515 -0.035,-1.349 0.988,-1.715 2.211,-0.795 3.358,-2.05 3.358,-4.793 0,-0.878 0,-2.084 0,-2.847 0,-0.77 -0.371,-1.479 -1.026,-1.479 -0.734,0 -0.943,0.916 -0.943,1.354 0,0.443 -0.158,1.633 -1.316,1.633 -1.248,0 -1.258,-1.217 -1.258,-2.567 0,-1.281 -0.096,-2.998 2.683,-2.998 l 10.926,0 c 2.777,0 2.68,1.865 2.68,2.998 0,1.129 -0.01,2.522 -1.258,2.522 C 5.67,2.965 5.635,1.793 5.635,1.359 5.635,0.926 5.449,0 4.65,0 3.844,0 3.621,0.732 3.621,1.502 c 0,0.763 0,1.969 0,2.847 0,2.743 1.191,3.998 3.406,4.793 1.02,0.366 1.164,1.2 0.985,1.715 C 7.824,11.369 7.246,11.769 6.037,11.408 3.877,10.752 0.916,8.957 0.916,4.242 l 0,-2.775 C 0.916,0.627 0.516,0 0,0" />
    </g>
    <g
       style="fill:#231F20"
       transform="matrix(-4.4702727,0,0,4.4702727,500.79814,478.63778)"
       id="g3402">
      <path
         id="path3404"
         style="fill:#231F20;fill-opacity:1;fill-rule:nonzero;stroke:none"
         d="m 0,0 c -0.797,0 -1.508,0.534 -1.508,1.297 0,0.733 0.678,1.225 1.584,1.225 l 8.395,0 c 0.799,0 1.482,0.439 1.482,1.072 0,0.584 -0.822,1.022 -1.512,1.022 l -7.052,0 c -0.774,0 -1.401,0.492 -1.401,1.211 0,0.681 0.596,1.144 1.401,1.144 l 20.662,0 c 0.726,0 1.361,-0.494 1.361,-1.144 0,-0.713 -0.592,-1.211 -1.361,-1.211 l -7.162,0 c -0.76,0 -1.526,-0.411 -1.526,-1.022 0,-0.642 0.692,-1.072 1.487,-1.072 l 8.507,0 c 0.827,0 1.536,-0.524 1.536,-1.225 C 24.893,0.539 24.231,0 23.357,0 L 14.879,0 C 12.678,0 13.449,-1.902 11.637,-1.902 9.832,-1.902 10.561,0 8.553,0 L 0,0" />
    </g>
    <g
       style="fill:#231F20"
       transform="matrix(-4.4702727,0,0,4.4702727,492.15281,517.54699)"
       id="g3406">
      <path
         id="path3408"
         style="fill:#231F20;fill-opacity:1;fill-rule:nonzero;stroke:none"
         d="m 0,0 c -2.407,0 -2.959,0.949 -2.959,2.265 l 0,2.387 c 0,1.244 0.293,1.865 1.386,1.865 1.104,0 1.54,-0.475 1.54,-2.004 0,-1.541 0.47,-2.135 1.976,-2.135 l 1.17,0 c 1.459,0 2.047,0.291 2.047,2.012 l 0,2.211 c 0,2.225 -1.028,4.404 -5.16,4.404 l -1.131,0 c -1.348,0 -1.785,0.657 -1.785,1.28 0,0.621 0.177,1.465 1.709,1.465 l 1.615,0 c 4.605,0 7.752,-2.311 7.752,-6.848 l 0,-2.807 c 0,-1.314 0.783,-1.717 1.592,-1.717 0.806,0 1.593,0.403 1.593,1.717 l 0,2.807 c 0,4.537 3.145,6.848 7.754,6.848 l 1.608,0 c 1.533,0 1.716,-0.844 1.716,-1.465 0,-0.623 -0.439,-1.28 -1.791,-1.28 l -1.132,0 c -4.129,0 -5.16,-2.179 -5.16,-4.404 l 0,-2.211 c 0,-1.721 0.589,-2.012 2.05,-2.012 l 1.172,0 c 1.494,0 1.973,0.508 1.973,2.041 0,1.541 0.433,2.02 1.533,2.02 1.098,0 1.395,-0.629 1.395,-1.869 l 0,-2.305 C 22.463,0.949 21.914,0 19.5,0 L 0,0" />
    </g>
    <g
       style="fill:#231F20"
       transform="matrix(-4.4702727,0,0,4.4702727,693.05562,556.60827)"
       id="g3410">
      <path
         id="path3412"
         style="fill:#231F20;fill-opacity:1;fill-rule:nonzero;stroke:none"
         d="m 0,0 c 0,-0.362 -0.521,-0.656 -1.465,-0.656 l -2.261,0 c -0.801,0 -1.391,0.218 -1.391,0.656 0,0.437 0.51,0.627 1.391,0.627 l 2.261,0 C -0.627,0.627 0,0.404 0,0 Z m 0,-3.031 c 0,-0.37 -0.521,-0.663 -1.465,-0.663 l -2.261,0 c -0.801,0 -1.391,0.221 -1.391,0.663 0,0.437 0.51,0.625 1.391,0.625 l 2.261,0 C -0.627,-2.406 0,-2.637 0,-3.031 Z m 0,-3.18 c 0,-0.373 -0.521,-0.66 -1.465,-0.66 l -2.261,0 c -0.801,0 -1.391,0.218 -1.391,0.66 0,0.437 0.51,0.613 1.391,0.613 l 2.261,0 C -0.627,-5.598 0,-5.813 0,-6.211 Z m -3.875,-6.291 c 0,1.5 -0.877,2.189 -2.265,2.189 l -4.422,0 c -1.426,0 -1.904,0.623 -1.904,1.608 l 0,9.689 c 0,1.244 0.478,1.826 1.57,1.826 l 0.988,0 c 1.279,0 1.647,-0.724 1.647,-1.894 l 0,-6.072 c 0,-2.229 -1.936,-1.317 -1.936,-2.704 0,-0.586 0.506,-0.878 1.498,-0.878 l 11.736,0 c 1.354,0 1.973,0.255 1.973,0.878 0,1.387 -1.902,0.256 -1.902,2.848 l 0,4.066 c 0,2.049 1.941,1.278 1.941,2.594 0,0.658 -0.476,0.99 -2.049,0.99 l -7.189,0 c -2.86,0 -0.571,2.374 -3.332,2.374 l -5.348,0 c -2.012,0 -2.447,-0.737 -2.447,-2.893 l 0,-18.459 c 0,-1.613 0.732,-2.215 2.482,-2.215 l 6.58,0 c 1.754,0 2.379,0.971 2.379,2.287 l 0,3.766 z m -3.289,-0.324 c 0,-0.377 -0.525,-0.623 -1.48,-0.623 l -1.758,0 c -1.022,0 -1.527,0.308 -1.527,0.644 0,0.322 0.396,0.701 1.459,0.701 l 1.9,0 c 0.699,0 1.406,-0.209 1.406,-0.722 z m 0.08,-3.108 c 0,-0.371 -0.521,-0.701 -1.48,-0.701 l -1.981,0 c -1.021,0 -1.443,0.393 -1.443,0.723 0,0.322 0.311,0.705 1.367,0.705 l 2.137,0 c 0.689,0 1.4,-0.215 1.4,-0.727 z m 12.379,3.83 -1.822,0 c -1.061,0 -1.451,-0.379 -1.451,-0.701 0,-0.336 0.498,-0.644 1.527,-0.644 l 1.67,0 c 0.955,0 1.479,0.246 1.479,0.623 0,0.513 -0.711,0.722 -1.403,0.722 z m 0.082,-3.103 -2.045,0 c -1.062,0 -1.375,-0.383 -1.375,-0.705 0,-0.33 0.42,-0.723 1.444,-0.723 l 1.902,0 c 0.951,0 1.479,0.33 1.479,0.701 0,0.512 -0.711,0.727 -1.405,0.727 z m 4.613,-1.061 c 0,-1.428 -0.732,-2.287 -2.218,-2.287 l -6.744,0 c -1.373,0 -2.196,0.645 -2.196,1.953 l 0,4.119 c 0,1.368 0.602,2.137 1.973,2.137 l 4.609,0 c 0.989,0 1.809,0.383 1.809,1.586 l 0,12.139 c 0,1.15 0.695,1.633 1.461,1.633 0.695,0 1.306,-0.45 1.306,-1.577 l 0,-19.703" />
    </g>
    <g
       style="fill:#231F20"
       transform="matrix(-4.4702727,0,0,4.4702727,551.77709,506.60377)"
       id="g3414">
      <path
         id="path3416"
         style="fill:#231F20;fill-opacity:1;fill-rule:nonzero;stroke:none"
         d="m 0,0 c -1.522,0 -2.123,-0.847 -2.123,-2.492 0,-0.873 0.703,-1.258 2.064,-1.258 1.379,0 2.221,0.319 2.221,1.188 C 2.162,-0.842 1.599,0 0,0 Z m -10.754,-1.894 c 0,1.572 -0.84,1.927 -1.719,1.927 l -4.705,0 c -1.279,0 -1.641,0.473 -1.68,1.209 0,1.684 1.807,0.356 1.807,2.989 l 0,10.134 c 0,1.065 0.357,1.833 1.418,1.833 1.019,0 1.469,-0.758 1.469,-1.833 l 0,-10.169 c 0,-1.2 0.578,-1.813 1.74,-1.813 1.176,0 1.707,0.529 1.707,1.848 l 0,6.332 c 0,3.547 2.125,5.635 5.635,5.635 1.349,0 1.879,-0.51 1.879,-1.903 l 0,-6.494 c 0,-0.766 0.398,-1.158 0.836,-1.158 0.437,0 0.851,0.392 0.851,1.06 l 0,6.424 c 0,1.408 0.36,2.071 1.338,2.071 1.064,0 1.449,-0.819 1.449,-2.172 l 0,-6.323 c 0,-0.738 0.409,-1.06 0.83,-1.06 0.42,0 0.811,0.402 0.811,1.158 l 0,3.17 c 0,3.176 2.301,5.043 3.615,5.043 0.846,0 1.104,-0.553 1.104,-1.102 0,-1.714 -2.2,-0.98 -2.2,-4.349 l 0,-2.305 C 5.431,6.03 6.855,6.506 6.855,5.19 6.855,4.381 6.273,3.944 4.738,3.944 l -1.846,0 C 2.213,3.944 1.543,3.637 1.543,3.123 1.543,2.621 2.18,2.407 2.877,2.407 l 2.701,0 C 6.82,2.407 7.373,1.867 7.373,1.125 7.373,0.399 6.779,0.074 5.908,-0.002 4.633,-0.115 4.492,-1.068 4.793,-2.39 5.16,-3.959 6.855,-3.402 6.855,-5.049 c 0,-0.765 -0.783,-1.023 -1.642,-1.023 l -2.077,0 c -2.597,0 -1.542,-2.086 -3.3,-2.086 -1.864,0 -0.905,2.086 -3.246,2.086 l -1.604,0 c -0.924,0 -1.734,0.258 -1.734,1.205 0,1.541 2.306,0.662 2.306,3.736 0,1.637 -2.314,0.655 -2.314,2.373 0,0.729 0.584,1.127 1.648,1.127 l 2.043,0 c 0.573,0 1.264,0.241 1.264,0.75 0,0.567 -0.668,0.862 -1.318,0.862 l -1.764,0 c -1.318,0 -1.865,0.621 -1.865,1.314 0,1.026 1.023,0.735 1.023,2.893 l 0,3.287 c 0,0.881 -0.439,1.408 -0.842,1.408 -0.802,0 -1.48,-0.744 -1.48,-2.791 l 0,-15.221 c 0,-1.642 -1.057,-2.16 -2.447,-2.16 l -6.526,0 c -1.039,0 -1.9,0.194 -1.9,1.145 0,0.947 0.857,1.146 1.9,1.146 l 4.604,0 c 0.982,0 1.662,0.524 1.662,1.66 l 0,1.444" />
    </g>
  </g>
</svg>